<svg
        xmlns="http://www.w3.org/2000/svg" viewBox="-0.005 0 128.796 111.51">
    <title>沉沦云网络</title>
    <g>
        <g fill="#0051eb">
            <path d="M104.73 0c1.77 1.26 1.92 3.42 2.67 5.19 6.79 15.94 13.47 31.93 20.18 47.9 3.38 8-.51 13.91-9.27 13.92-20.09 0-40.18 0-60.27.06a3.67 3.67 0 0 1-4-2.64c-7.17-17.3-14.49-34.55-21.69-51.84C29.71 6.26 33.26.42 39.86 0a4.57 4.57 0 0 0 2.37.26h60.13a4.68 4.68 0 0 0 2.37-.26z"/>
            <path d="M23.43 15.54l11.43 27.15c4.29 10.22 8.64 20.42 12.81 30.69.79 2 1.79 2.47 3.79 2.46 21.32-.07 42.63 0 64 0h3.34c-3.43 8.9-9.91 13.41-19.09 13.41-19.09 0-38.18 0-57.28.05-1.87 0-2.88-.5-3.63-2.29-7-16.85-14-33.71-21.18-50.47-2.55-5.92-2.26-11.11 2-16 1.23-1.48 2.32-3.07 3.81-5z"/>
            <path d="M7.45 36.34l15.4 36.74c3.15 7.53 6.37 15 9.4 22.61.75 1.9 1.75 2.49 3.75 2.48 20.7-.09 41.41-.06 62.11-.06h3.35c-2 7.28-9.82 13.39-17.07 13.4-17.47 0-34.94-.05-52.42 0-5.18 0-8.59-2.16-10.57-6.92-6.7-16.1-13.5-32.16-20.19-48.26a13.59 13.59 0 0 1 1.87-14.24c1.34-1.75 2.67-3.51 4.37-5.75z"/>
        </g>
    </g>
</svg>