<svg width="500" height="110" viewBox="0 0 500 110" xmlns="http://www.w3.org/2000/svg" xmlns:xlink="http://www.w3.org/1999/xlink"><defs><linearGradient x1="100%" y1="50%" x2="-48.152%" y2="45.357%" id="e"><stop stop-color="#E7C183" offset="0%"/><stop stop-color="#FCE9C9" offset="100%"/><stop stop-color="#FCE9C9" offset="100%"/><stop stop-color="#FCE9C9" offset="100%"/></linearGradient><linearGradient x1="40.989%" y1="25.863%" x2="40.989%" y2="68.456%" id="f"><stop stop-color="#FFF" stop-opacity=".3" offset="0%"/><stop stop-color="#FFF" stop-opacity="0" offset="100%"/></linearGradient><path d="M0 0h500v370c0 6.627-5.373 12-12 12H12c-6.627 0-12-5.373-12-12V0Z" id="a"/><path id="d" d="M0 0h500v110H0z"/><filter x="-14%" y="-13.1%" width="128%" height="136.6%" filterUnits="objectBoundingBox" id="b"><feOffset dy="20" in="SourceAlpha" result="shadowOffsetOuter1"/><feGaussianBlur stdDeviation="20" in="shadowOffsetOuter1" result="shadowBlurOuter1"/><feColorMatrix values="0 0 0 0 0.16727225 0 0 0 0 0.259431797 0 0 0 0 0.544483418 0 0 0 0.096948596 0" in="shadowBlurOuter1"/></filter></defs><g fill="none" fill-rule="evenodd"><mask id="c" fill="#fff"><use xlink:href="#a"/></mask><use fill="#000" filter="url(#b)" xlink:href="#a"/><use fill="#FFF" xlink:href="#a"/><g mask="url(#c)"><mask id="g" fill="#fff"><use xlink:href="#d"/></mask><use fill="url(#e)" transform="matrix(1 0 0 -1 0 110)" xlink:href="#d"/><path d="m486 135-.14 1.448c-1.948 20.423-17.75 37.328-37.573 40.197a35.039 35.039 0 0 1-5.024.355c-12.195 0-24.062-6.007-31.087-11.721l-1.176-.957 1.485-.328c15.206-3.35 28.842-7.534 40.53-12.435 11.696-4.906 22.37-10.224 31.728-15.808L486 135Zm-50-239c59.094 0 107 47.205 107 105.435 0 32.733-15.26 62.44-39.619 81.925-1.31 1.226-2.942 2.538-4.893 3.934-6.49 4.646-13.468 8.631-21.073 12.567-16.31 10.125-36.095 18.616-59.358 25.475v8.104c12.104-3.68 23.81-8.01 35.115-12.986 17.77-7.824 30.104-14.153 37-18.99v8.665c0 9.403-5.012 18.105-13.178 22.881-4.805 2.81-10.554 5.776-17.246 8.899-10.199 4.759-23.42 9.541-39.662 14.345a18.17 18.17 0 0 1-5.152.746c-9.958 0-18.03-8.007-18.03-17.885l.037-.01.003-1.935c-.125.177-.247.355-.365.535l.38-9.886a30.41 30.41 0 0 1 1.02-7.77c1.518-9.424 8.278-18.075 17.628-21.332 8.372-2.915 15.038-5.409 20-7.478 5.34-2.228 10.386-4.305 15.244-6.478 5.32-2.68 11.125-6.223 16.76-10.048a14.194 14.194 0 0 1-1.77-1.689L438.66 42.231l-26.064 30.834a13.975 13.975 0 0 1-1.94 2.39l.002.187c-7.16 8.766-17.524 20.16-47.122 2.304C339.21 58.232 329 33.55 329 1.435 329-56.795 376.906-104 436-104Zm0 29.175c-42.958 0-77.782 34.466-77.782 76.982 0 20.074 7.248 43.262 25.159 54.241a41.502 41.502 0 0 0 3.497 1.91v-77.004c0-7.634 6.297-13.822 14.065-13.822 7.767 0 14.064 6.188 14.064 13.822v46.331l46.405-55.14c4.95-5.883 13.816-6.708 19.802-1.842 5.985 4.865 6.824 13.577 1.874 19.46l-26.174 31.1c.35.326.688.672 1.01 1.038l29.135 33.154a13.957 13.957 0 0 1 2.033 3.03c15.296-14.158 24.694-34.284 24.694-56.278 0-42.516-34.824-76.982-77.782-76.982Z" fill="url(#f)" mask="url(#g)"/></g></g></svg>